<svg version="1" xmlns="http://www.w3.org/2000/svg" width="705.333" height="705.333" viewBox="0 0 529.000000 529.000000"><path d="M249.5 23.6c-32.4 3.2-54 8.4-79.4 19C114.2 66.1 66 114.3 42.7 170.1c-13.6 32.5-19.1 59.7-19.1 94.9 0 28.5 3.4 50.1 11.6 75 12 36.4 29.6 65.4 56.8 93.4 38.1 39.3 85.1 63.2 140.5 71.2 16.4 2.4 48.6 2.4 65 0 53.3-7.7 98-29.6 135.9-66.5 39.5-38.5 63.3-85.5 71.2-140.6 2.4-16.5 2.4-48.7 0-65-7.7-53.3-29.5-97.7-66.6-135.9-38.1-39.3-85.3-63.2-140.2-71.1-10.2-1.5-40.6-2.7-48.3-1.9zm-32.4 194.6c-3.2 7-5.1 14.9-5.1 20.8 0 2.2-.2 4-.5 4-4.5 0-40.5 6.1-53.9 9.1-17.6 4-42.1 10.6-48.1 12.9-6.1 2.5-22 8-22.8 8-1.5 0 4.7-5.5 9.3-8.3 2.5-1.5 8.8-5.5 14-8.8 8.8-5.7 29.4-16.2 53.5-27.2 11.4-5.2 28.4-10.8 43-14.2 14.5-3.4 13.9-3.6 10.6 3.7zm106.9-1.8c13.1 3.3 21.2 6 37 12.4 28.1 11.3 65.4 30 74.5 37.5 1.7 1.3 4.5 3.2 6.3 4.1 4.5 2.3 3.2 3.3-1.5 1.4-11.7-4.9-49-15.4-72.9-20.7-9.9-2.2-42.6-7.1-47.4-7.1-2.9 0-3-.2-3-4.5 0-6-1.8-13.9-4.6-20.4-2.4-5.3-2.7-6.1-2.1-6.1.1 0 6.3 1.5 13.7 3.4z"/></svg>